<?xml version="1.0" encoding="UTF-8"?>
<svg width="64px" height="40px" viewBox="0 0 64 40" version="1.1" xmlns="http://www.w3.org/2000/svg" xmlns:xlink="http://www.w3.org/1999/xlink">
    <!-- Generator: Sketch 44.1 (41455) - http://www.bohemiancoding.com/sketch -->
    <title></title>
    <desc>Created with Sketch.</desc>
    <defs></defs>
    <g id="Landing-Page" stroke="none" stroke-width="1" fill="none" fill-rule="evenodd">
        <g id="index-all" transform="translate(-676.000000, -26.000000)" fill="#000000">
            <g id="Group" transform="translate(436.000000, 21.000000)">
                <path d="M275.526367,45 L253.700195,45 L244.642578,37.4072266 C241.6966,34.9332559 240.223633,32.6464949 240.223633,30.546875 C240.223633,29.0331956 240.813633,27.8125046 241.993652,26.8847656 C243.173671,25.9570266 244.732087,25.4931641 246.668945,25.4931641 C248.963879,25.4931641 251.307605,26.176751 253.700195,27.5439453 L253.700195,26.9335938 C253.700195,24.3619663 254.452955,22.1362399 255.958496,20.2563477 C257.464037,18.3764554 259.502591,17.1028679 262.074219,16.4355469 L279.457031,11.9677734 L279.457031,8.20800781 L290.296875,5.42480469 L290.296875,9.2578125 C291.24089,9.02994678 292.209305,8.91601562 293.202148,8.91601562 C296.034194,8.91601562 298.516265,10.0024305 300.648438,12.175293 C302.78061,14.3481554 303.84668,16.8749856 303.84668,19.7558594 L303.84668,37.7734375 L275.526367,45 Z M272.108398,43.8037109 L258.77832,32.6953125 C253.99314,28.7239385 249.989274,26.7382812 246.766602,26.7382812 C245.187818,26.7382812 243.910161,27.0719368 242.933594,27.7392578 C241.957026,28.4065789 241.46875,29.2773384 241.46875,30.3515625 C241.46875,32.3209734 243.299786,34.8030449 246.961914,37.7978516 L254.261719,43.8037109 L272.108398,43.8037109 Z M254.334961,35.0390625 L253.480469,35.9667969 L249.818359,35.9667969 L247.035156,33.6230469 L247.645508,32.5732422 L248.915039,33.5498047 L250.794922,33.5498047 L251.576172,32.7685547 L254.334961,35.0390625 Z M273.011719,22.2949219 C270.944651,19.1699063 268.071958,17.6074219 264.393555,17.6074219 C261.659166,17.6074219 259.396819,18.5066642 257.606445,20.3051758 C255.816072,22.1036874 254.920898,24.3782415 254.920898,27.1289062 L254.920898,28.2519531 C256.776376,29.4401101 258.371413,30.6282493 259.706055,31.8164062 L260.658203,32.6464844 L264.442383,24.4433594 L273.011719,22.2949219 Z M274.305664,27.1044922 C274.305664,25.9488875 274.069664,24.7281965 273.597656,23.4423828 L265.296875,25.4931641 L261.65918,33.4521484 L266.053711,37.1386719 L267.90918,28.7402344 L274.305664,27.1044922 Z M274.183594,39.4335938 L274.183594,28.4716797 L268.885742,29.7900391 L267.054688,37.9443359 L270.155273,40.4589844 L274.183594,39.4335938 Z M274.183594,43.8037109 L274.183594,40.6054688 L271.253906,41.3623047 L274.183594,43.8037109 Z M302.650391,36.8701172 L302.650391,19.8046875 C302.650391,17.1842317 301.694183,14.8974707 299.781738,12.9443359 C297.869294,10.9912012 295.627292,10.0146484 293.055664,10.0146484 C292.27441,10.0146484 291.354823,10.1448555 290.296875,10.4052734 L290.296875,15.3613281 L283.363281,17.265625 L283.363281,31.8408203 L279.457031,32.7685547 L279.457031,13.2617188 L266.883789,16.4599609 C269.569349,17.2900432 271.656731,18.6287343 273.145996,20.4760742 C274.635261,22.3234142 275.379883,24.5084509 275.379883,27.03125 L275.379883,43.8037109 L302.650391,36.8701172 Z" id=""></path>
            </g>
        </g>
    </g>
</svg>