<?xml version="1.0" encoding="UTF-8"?>
<svg width="46px" height="37px" viewBox="0 0 46 37" version="1.1" xmlns="http://www.w3.org/2000/svg" xmlns:xlink="http://www.w3.org/1999/xlink">
    <!-- Generator: Sketch 44.1 (41455) - http://www.bohemiancoding.com/sketch -->
    <title></title>
    <desc>Created with Sketch.</desc>
    <defs></defs>
    <g id="Landing-Page" stroke="none" stroke-width="1" fill="none" fill-rule="evenodd">
        <g id="index-all" transform="translate(-759.000000, -29.000000)" fill="#000000">
            <g id="Group" transform="translate(436.000000, 21.000000)">
                <path d="M331.646484,21.5136719 L362.383789,21.5136719 C365.297215,21.5136719 367.030596,21.7903618 367.583984,22.34375 C368.137373,22.8971382 368.414062,24.6223813 368.414062,27.5195312 L368.414062,38.9697266 C368.414062,41.8180481 368.117028,43.5351533 367.522949,44.1210938 C366.928871,44.7070342 365.215834,45 362.383789,45 L329.253906,45 C326.519518,45 324.830895,44.6785514 324.187988,44.0356445 C323.545081,43.3927377 323.223633,41.7041152 323.223633,38.9697266 L323.223633,27.5195312 C323.223633,24.8176948 323.475909,23.1331414 323.980469,22.4658203 C324.485029,21.7984993 325.770823,21.4648438 327.837891,21.4648438 L329.253906,21.5136719 L329.253906,21.0498047 C329.253906,18.575834 330.006666,16.4965905 331.512207,14.8120117 C333.017748,13.127433 334.885406,12.2851562 337.115234,12.2851562 C338.173182,12.2851562 339.345046,12.4641909 340.630859,12.8222656 L341.705078,13.1396484 C343.121101,13.5465515 344.341792,13.75 345.367188,13.75 C348.329442,13.75 350.347651,12.4479297 351.421875,9.84375 C351.926435,8.59048853 352.439125,7.96386719 352.959961,7.96386719 C353.708663,7.96386719 354.083008,8.31379858 354.083008,9.01367188 C354.083008,10.2506572 353.415697,11.6178311 352.081055,13.1152344 C350.290681,15.1497498 348.0853,16.1669922 345.464844,16.1669922 C344.569657,16.1669922 343.161793,15.9472678 341.241211,15.5078125 L339.947266,15.2148438 C338.531243,14.8730452 337.522138,14.7021484 336.919922,14.7021484 C335.471347,14.7021484 334.230311,15.3206318 333.196777,16.5576172 C332.163244,17.7946025 331.646484,19.2675696 331.646484,20.9765625 L331.646484,21.5136719 Z M362.383789,22.7099609 L329.253906,22.7099609 C326.877592,22.7099609 325.477867,22.9215474 325.054688,23.3447266 C324.631508,23.7679058 324.419922,25.1594934 324.419922,27.5195312 L324.419922,38.9453125 C324.419922,41.3216265 324.631508,42.7213521 325.054688,43.1445312 C325.477867,43.5677104 326.877592,43.7792969 329.253906,43.7792969 L362.383789,43.7792969 C364.760103,43.7792969 366.15576,43.5677104 366.570801,43.1445312 C366.985842,42.7213521 367.193359,41.3216265 367.193359,38.9453125 L367.193359,27.5195312 C367.193359,25.1594934 366.981773,23.7679058 366.558594,23.3447266 C366.135415,22.9215474 364.743827,22.7099609 362.383789,22.7099609 Z M329.253906,26.3232422 L332.256836,26.3232422 L332.256836,29.3017578 L335.259766,29.3017578 L335.259766,26.3232422 L338.287109,26.3232422 L338.287109,29.3017578 L341.290039,29.3017578 L341.290039,26.3232422 L344.317383,26.3232422 L344.317383,29.3017578 L347.320312,29.3017578 L347.320312,26.3232422 L350.323242,26.3232422 L350.323242,29.3017578 L353.350586,29.3017578 L353.350586,26.3232422 L356.353516,26.3232422 L356.353516,29.3017578 L359.356445,29.3017578 L359.356445,26.3232422 L362.383789,26.3232422 L362.383789,29.3261719 L359.405273,29.3261719 L359.405273,32.3535156 L362.383789,32.3535156 L362.383789,35.3564453 L359.356445,35.3564453 L359.356445,32.3779297 L356.353516,32.3779297 L356.353516,35.3564453 L353.350586,35.3564453 L353.350586,32.3779297 L350.323242,32.3779297 L350.323242,35.3564453 L347.320312,35.3564453 L347.320312,32.3779297 L344.317383,32.3779297 L344.317383,35.3564453 L341.290039,35.3564453 L341.290039,32.3779297 L338.287109,32.3779297 L338.287109,35.3564453 L335.259766,35.3564453 L335.259766,32.3779297 L332.256836,32.3779297 L332.256836,35.3564453 L329.253906,35.3564453 L329.253906,32.3535156 L332.208008,32.3535156 L332.208008,29.3261719 L329.253906,29.3261719 L329.253906,26.3232422 Z M335.308594,32.3291016 L338.262695,32.3291016 L338.262695,29.375 L335.308594,29.375 L335.308594,32.3291016 Z M341.314453,32.3291016 L344.292969,32.3291016 L344.292969,29.375 L341.314453,29.375 L341.314453,32.3291016 Z M347.344727,32.3291016 L350.298828,32.3291016 L350.298828,29.375 L347.344727,29.375 L347.344727,32.3291016 Z M353.375,32.3291016 L356.329102,32.3291016 L356.329102,29.375 L353.375,29.375 L353.375,32.3291016 Z M335.259766,40.1904297 L335.259766,37.1630859 L356.353516,37.1630859 L356.353516,40.1904297 L335.259766,40.1904297 Z" id=""></path>
            </g>
        </g>
    </g>
</svg>