<?xml version="1.0" encoding="UTF-8"?>
<svg width="33px" height="37px" viewBox="0 0 33 37" version="1.1" xmlns="http://www.w3.org/2000/svg" xmlns:xlink="http://www.w3.org/1999/xlink">
    <!-- Generator: Sketch 44.1 (41455) - http://www.bohemiancoding.com/sketch -->
    <title></title>
    <desc>Created with Sketch.</desc>
    <defs></defs>
    <g id="Landing-Page" stroke="none" stroke-width="1" fill="none" fill-rule="evenodd">
        <g id="index-all" transform="translate(-625.000000, -29.000000)" fill="#000000">
            <g id="Group" transform="translate(436.000000, 21.000000)">
                <polygon id="" points="204.433594 45 204.433594 39.3115234 199.477539 42.1435547 198.574219 40.5810547 204.433594 37.2119141 204.433594 28.4960938 196.889648 32.8662109 196.889648 39.6044922 195.058594 39.6044922 195.058594 33.8916016 190.126953 36.7480469 189.223633 35.1855469 194.155273 32.3291016 189.223633 29.4970703 190.126953 27.9101562 195.961914 31.2792969 203.530273 26.9335938 195.961914 22.5878906 190.126953 25.9326172 189.223633 24.3701172 194.155273 21.5380859 189.223633 18.6816406 190.126953 17.1191406 195.058594 19.9511719 195.058594 14.2626953 196.889648 14.2626953 196.889648 21.0009766 204.433594 25.3710938 204.433594 16.6308594 198.598633 13.2861328 199.501953 11.6992188 204.433594 14.5556641 204.433594 8.8671875 206.240234 8.8671875 206.240234 14.5556641 211.171875 11.6992188 212.075195 13.2861328 206.240234 16.6308594 206.240234 25.3710938 213.78418 21.0009766 213.78418 14.2626953 215.59082 14.2626953 215.59082 19.9511719 220.522461 17.1191406 221.450195 18.6816406 216.518555 21.5380859 221.450195 24.3701172 220.546875 25.9326172 214.6875 22.5878906 207.143555 26.9335938 214.6875 31.2792969 220.522461 27.9101562 221.450195 29.4970703 216.518555 32.3291016 221.450195 35.1855469 220.546875 36.7480469 215.59082 33.8916016 215.59082 39.6044922 213.78418 39.6044922 213.78418 32.8662109 206.240234 28.4960938 206.240234 37.2119141 212.099609 40.5810547 211.196289 42.1435547 206.240234 39.3115234 206.240234 45"></polygon>
            </g>
        </g>
    </g>
</svg>