<?xml version="1.0" encoding="UTF-8"?>
<svg width="37px" height="41px" viewBox="0 0 37 41" version="1.1" xmlns="http://www.w3.org/2000/svg" xmlns:xlink="http://www.w3.org/1999/xlink">
    <!-- Generator: Sketch 44.1 (41455) - http://www.bohemiancoding.com/sketch -->
    <title></title>
    <desc>Created with Sketch.</desc>
    <defs></defs>
    <g id="Landing-Page" stroke="none" stroke-width="1" fill="none" fill-rule="evenodd">
        <g id="index-all" transform="translate(-823.000000, -26.000000)" fill="#000000">
            <g id="Group" transform="translate(436.000000, 21.000000)">
                <path d="M408.830078,40.8496094 L408.830078,44.3408203 C406.76301,45.1871787 404.801767,45.6103516 402.946289,45.6103516 C401.025707,45.6103516 399.170256,45.1871787 397.379883,44.3408203 L397.379883,41.6552734 L395.255859,39.2138672 C394.018874,36.9026577 393.156252,33.9241719 392.667969,30.2783203 L392.936523,27.3486328 L388.273438,19.2431641 C387.573564,18.0224548 387.223633,17.0459021 387.223633,16.3134766 C387.223633,15.6624316 387.439288,15.1131207 387.870605,14.6655273 C388.301923,14.217934 388.82682,13.9941406 389.445312,13.9941406 C390.356775,13.9941406 391.268225,14.7428311 392.179688,16.2402344 L396.40332,23.1982422 L393.791016,13.2373047 C393.465493,12.0003193 393.302734,11.1458357 393.302734,10.6738281 C393.302734,9.76236523 393.502114,9.08284729 393.900879,8.63525391 C394.299644,8.18766052 394.897782,7.96386719 395.695312,7.96386719 C397.062507,7.96386719 398.047198,9.00552344 398.649414,11.0888672 L401.579102,21.3183594 L401.579102,9.6484375 C401.579102,8.3788999 401.806964,7.42676099 402.262695,6.79199219 C402.718427,6.15722339 403.402014,5.83984375 404.313477,5.83984375 C406.120126,5.83984375 407.023438,7.27212109 407.023438,10.1367188 L406.754883,21.8066406 L409.806641,12.7246094 C410.701827,10.0553252 411.800449,8.72070312 413.102539,8.72070312 C413.851241,8.72070312 414.412759,8.90787573 414.787109,9.28222656 C415.16146,9.65657739 415.348633,10.2262332 415.348633,10.9912109 C415.348633,11.7724648 415.218426,12.692052 414.958008,13.75 L411.930664,25.5175781 C412.093425,26.0709663 412.23177,26.92545 412.345703,28.0810547 C412.866539,27.7880845 413.590816,27.4788428 414.518555,27.1533203 C415.185876,26.0302678 415.926428,25.1879911 416.740234,24.6264648 C417.554041,24.0649386 418.449214,23.7841797 419.425781,23.7841797 C420.369796,23.7841797 421.517246,24.3619734 422.868164,25.5175781 L423.356445,25.9082031 L418.083008,30.9130859 L413.59082,36.9189453 C411.816723,38.5791099 410.229825,39.8893181 408.830078,40.8496094 Z M407.658203,40.2636719 C409.85548,38.554679 411.629551,37.0328843 412.980469,35.6982422 L417.082031,30.2050781 L421.598633,25.9814453 C420.817379,25.3304004 420.076826,25.0048828 419.376953,25.0048828 C418.595699,25.0048828 417.871423,25.2612279 417.204102,25.7739258 C416.536781,26.2866237 415.926435,27.0637969 415.373047,28.1054688 C412.508449,29.0006555 410.099619,30.6282434 408.146484,32.9882812 L407.21875,32.2558594 C408.195317,30.7910083 409.529939,29.6028691 411.222656,28.6914062 C411.076171,27.5358015 410.864585,26.4778694 410.587891,25.5175781 L413.664062,14.0185547 C413.989585,12.8466738 414.152344,11.9921902 414.152344,11.4550781 C414.152344,10.9667944 414.062826,10.6046561 413.883789,10.3686523 C413.704752,10.1326486 413.4362,10.0146484 413.078125,10.0146484 C412.394528,10.0146484 411.767906,10.8528562 411.198242,12.5292969 L407.658203,23.0273438 L405.558594,23.0273438 L405.851562,11.0400391 L405.875977,10.2587891 C405.875977,8.12661694 405.363286,7.06054688 404.337891,7.06054688 C403.833331,7.06054688 403.450848,7.24365051 403.19043,7.60986328 C402.930012,7.97607605 402.799805,8.5335249 402.799805,9.28222656 L402.824219,10.8203125 L402.824219,23.0273438 L400.895508,23.3691406 L397.84375,12.1630859 C397.306638,10.1611228 396.606775,9.16015625 395.744141,9.16015625 C395.320961,9.16015625 395.003582,9.28629431 394.791992,9.53857422 C394.580403,9.79085413 394.474609,10.1774062 394.474609,10.6982422 C394.474609,11.0400408 394.621092,11.7317656 394.914062,12.7734375 L398.185547,24.6630859 L396.40332,25.5175781 L391.105469,16.8994141 C390.438148,15.7926377 389.860354,15.2392578 389.37207,15.2392578 C389.046548,15.2392578 388.80241,15.3287751 388.639648,15.5078125 C388.476887,15.6868499 388.395508,15.9635398 388.395508,16.3378906 C388.395508,16.8098982 388.696612,17.5667266 389.298828,18.6083984 L394.181641,26.9824219 L393.888672,30.2783203 C394.393232,33.6312017 395.231439,36.4469287 396.40332,38.7255859 L398.649414,41.4111328 L398.649414,43.5351562 C400.081713,44.0885444 401.59537,44.3652344 403.19043,44.3652344 C404.508796,44.3652344 405.998039,44.0885444 407.658203,43.5351562 L407.658203,40.2636719 Z" id=""></path>
            </g>
        </g>
    </g>
</svg>