<?xml version="1.0" encoding="UTF-8"?>
<svg width="51px" height="70px" viewBox="0 0 51 70" version="1.1" xmlns="http://www.w3.org/2000/svg" xmlns:xlink="http://www.w3.org/1999/xlink">
    <!-- Generator: Sketch 49.1 (51147) - http://www.bohemiancoding.com/sketch -->
    <title>np</title>
    <desc>Created with Sketch.</desc>
    <defs>
        <polygon id="path-1" points="0 0.7 50.9 0.7 50.9 70 0 70"></polygon>
    </defs>
    <g id="Page-1" stroke="none" stroke-width="1" fill="none" fill-rule="evenodd">
        <g id="np" transform="translate(0.000000, -1.000000)">
            <g id="Group-3" transform="translate(0.000000, 0.300000)">
                <mask id="mask-2" fill="white">
                    <use xlink:href="#path-1"></use>
                </mask>
                <g id="Clip-2"></g>
                <path d="M23.9,68.8 C11.3,68.8 3.8,63.7 3.8,55.1 C3.8,53 4.6,50.5 5.9,48.2 L12.1,37.5 L16.4,30.3 C17.8,27.6 17.8,24.3 16.2,21.6 L3.9,1.8 L43.9,1.8 L31.6,21.7 C30.1,24.4 30,27.6 31.5,30.4 L41.9,48.3 C43.3,50.5 44,53 44,55.1 C44,63.7 36.5,68.8 23.9,68.8 Z M12.1,34.3 C11.8,33.6 11.6,33.1 11.9,32.6 L13.2,30.3 C14.6,27.6 14.6,24.3 13,21.6 L1.4,2.7 L2.7,2 L15.2,22.3 C16.5,24.6 16.6,27.4 15.3,29.8 L12.3,34.9 C12.3,34.7 12.2,34.5 12.1,34.3 Z M39.5,11.3 C43.5,14 45.8,18.5 45.8,23.3 C45.8,29.3 42.1,34.6 36.6,36.8 L32.5,29.8 C31.2,27.4 31.3,24.6 32.6,22.3 L39.5,11.3 Z M49.7,23.3 C49.7,30.7 45.4,37.3 38.6,40.2 L37.2,37.9 C43.1,35.5 47,29.7 47,23.3 C47,18 44.4,13.2 40.1,10.3 L41.5,8 C46.6,11.4 49.7,17.1 49.7,23.3 Z M39.2,41.2 C46.3,38.1 50.9,31.1 50.9,23.3 C50.9,16.7 47.6,10.7 42.2,7 L45.6,1.6 C45.7,1.4 45.7,1.2 45.6,1 C45.5,0.8 45.3,0.7 45.1,0.7 L2.9,0.7 C2.8,0.7 2.7,0.7 2.6,0.8 L0.3,2 C0.2,2.1 0,2.2 0,2.4 C0,2.6 0,2.7 0.1,2.9 L12.1,22.3 C13.4,24.6 13.5,27.4 12.2,29.8 L10.9,32.1 C10.3,33.2 10.7,34.1 11,34.9 C11.4,35.7 11.5,36.3 11.1,37 L4.9,47.7 C2.9,51 2.6,53.8 2.6,55.2 C2.6,58.7 4.1,70 23.9,70 C43.7,70 45.2,58.6 45.2,55.2 C45.2,53.8 44.9,51 42.9,47.7 L39.2,41.2 Z" id="Fill-1" fill="#000000" mask="url(#mask-2)"></path>
            </g>
            <path d="M23.9,67.6 C35.4,67.6 41.4,63 42.1,56.7 L5.7,56.7 C6.5,63 12.4,67.6 23.9,67.6" id="Fill-4" fill="#000000"></path>
            <path d="M25.2999,20.9999 C25.6319,20.9999 25.8999,21.2689 25.8999,21.5999 C25.8999,21.9319 25.6319,22.1999 25.2999,22.1999 C24.9689,22.1999 24.6999,21.9319 24.6999,21.5999 C24.6999,21.2689 24.9689,20.9999 25.2999,20.9999" id="Fill-6" fill="#000000"></path>
            <path d="M22.6002,20.9999 C22.9312,20.9999 23.2002,21.2689 23.2002,21.5999 C23.2002,21.9319 22.9312,22.1999 22.6002,22.1999 C22.2682,22.1999 22.0002,21.9319 22.0002,21.5999 C22.0002,21.2689 22.2682,20.9999 22.6002,20.9999" id="Fill-8" fill="#000000"></path>
            <path d="M22.6002,25.6 C22.9312,25.6 23.2002,25.869 23.2002,26.2 C23.2002,26.531 22.9312,26.8 22.6002,26.8 C22.2682,26.8 22.0002,26.531 22.0002,26.2 C22.0002,25.869 22.2682,25.6 22.6002,25.6" id="Fill-10" fill="#000000"></path>
            <path d="M20.0001,20.9999 C20.3311,20.9999 20.6001,21.2689 20.6001,21.5999 C20.6001,21.9319 20.3311,22.1999 20.0001,22.1999 C19.6681,22.1999 19.4001,21.9319 19.4001,21.5999 C19.4001,21.2689 19.6681,20.9999 20.0001,20.9999" id="Fill-12" fill="#000000"></path>
            <path d="M27.9,20.9999 C28.231,20.9999 28.5,21.2689 28.5,21.5999 C28.5,21.9319 28.231,22.1999 27.9,22.1999 C27.569,22.1999 27.3,21.9319 27.3,21.5999 C27.3,21.2689 27.569,20.9999 27.9,20.9999" id="Fill-14" fill="#000000"></path>
            <path d="M26.6002,18.3998 C26.9312,18.3998 27.2002,18.6688 27.2002,18.9998 C27.2002,19.3318 26.9312,19.5998 26.6002,19.5998 C26.2682,19.5998 26.0002,19.3318 26.0002,18.9998 C26.0002,18.6688 26.2682,18.3998 26.6002,18.3998" id="Fill-16" fill="#000000"></path>
            <path d="M23.9,18.3998 C24.232,18.3998 24.5,18.6688 24.5,18.9998 C24.5,19.3318 24.232,19.5998 23.9,19.5998 C23.568,19.5998 23.3,19.3318 23.3,18.9998 C23.3,18.6688 23.568,18.3998 23.9,18.3998" id="Fill-18" fill="#000000"></path>
            <path d="M21.2999,18.3998 C21.6319,18.3998 21.8999,18.6688 21.8999,18.9998 C21.8999,19.3318 21.6319,19.5998 21.2999,19.5998 C20.9689,19.5998 20.6999,19.3318 20.6999,18.9998 C20.6999,18.6688 20.9689,18.3998 21.2999,18.3998" id="Fill-20" fill="#000000"></path>
            <path d="M18.6002,18.3998 C18.9312,18.3998 19.2002,18.6688 19.2002,18.9998 C19.2002,19.3318 18.9312,19.5998 18.6002,19.5998 C18.2682,19.5998 18.0002,19.3318 18.0002,18.9998 C18.0002,18.6688 18.2682,18.3998 18.6002,18.3998" id="Fill-22" fill="#000000"></path>
            <path d="M29.1998,18.3998 C29.5318,18.3998 29.8008,18.6688 29.8008,18.9998 C29.8008,19.3318 29.5318,19.5998 29.1998,19.5998 C28.8688,19.5998 28.5998,19.3318 28.5998,18.9998 C28.5998,18.6688 28.8688,18.3998 29.1998,18.3998" id="Fill-24" fill="#000000"></path>
            <path d="M25.2999,15.7001 C25.6319,15.7001 25.8999,15.9691 25.8999,16.3001 C25.8999,16.6311 25.6319,16.9001 25.2999,16.9001 C24.9689,16.9001 24.6999,16.6311 24.6999,16.3001 C24.6999,15.9691 24.9689,15.7001 25.2999,15.7001" id="Fill-26" fill="#000000"></path>
            <path d="M22.6002,15.7001 C22.9312,15.7001 23.2002,15.9691 23.2002,16.3001 C23.2002,16.6311 22.9312,16.9001 22.6002,16.9001 C22.2682,16.9001 22.0002,16.6311 22.0002,16.3001 C22.0002,15.9691 22.2682,15.7001 22.6002,15.7001" id="Fill-28" fill="#000000"></path>
            <path d="M20.0001,15.7001 C20.3311,15.7001 20.6001,15.9691 20.6001,16.3001 C20.6001,16.6311 20.3311,16.9001 20.0001,16.9001 C19.6681,16.9001 19.4001,16.6311 19.4001,16.3001 C19.4001,15.9691 19.6681,15.7001 20.0001,15.7001" id="Fill-30" fill="#000000"></path>
            <path d="M17.2999,15.7001 C17.6319,15.7001 17.8999,15.9691 17.8999,16.3001 C17.8999,16.6311 17.6319,16.9001 17.2999,16.9001 C16.9689,16.9001 16.6999,16.6311 16.6999,16.3001 C16.6999,15.9691 16.9689,15.7001 17.2999,15.7001" id="Fill-32" fill="#000000"></path>
            <path d="M27.9,15.7001 C28.231,15.7001 28.5,15.9691 28.5,16.3001 C28.5,16.6311 28.231,16.9001 27.9,16.9001 C27.569,16.9001 27.3,16.6311 27.3,16.3001 C27.3,15.9691 27.569,15.7001 27.9,15.7001" id="Fill-34" fill="#000000"></path>
            <path d="M30.4996,15.7001 C30.8316,15.7001 31.1006,15.9691 31.1006,16.3001 C31.1006,16.6311 30.8316,16.9001 30.4996,16.9001 C30.1686,16.9001 29.8996,16.6311 29.8996,16.3001 C29.8996,15.9691 30.1686,15.7001 30.4996,15.7001" id="Fill-36" fill="#000000"></path>
            <path d="M26.6002,13.1 C26.9312,13.1 27.2002,13.369 27.2002,13.7 C27.2002,14.031 26.9312,14.3 26.6002,14.3 C26.2682,14.3 26.0002,14.031 26.0002,13.7 C26.0002,13.369 26.2682,13.1 26.6002,13.1" id="Fill-38" fill="#000000"></path>
            <path d="M23.9,13.1 C24.232,13.1 24.5,13.369 24.5,13.7 C24.5,14.031 24.232,14.3 23.9,14.3 C23.568,14.3 23.3,14.031 23.3,13.7 C23.3,13.369 23.568,13.1 23.9,13.1" id="Fill-40" fill="#000000"></path>
            <path d="M21.2999,13.1 C21.6319,13.1 21.8999,13.369 21.8999,13.7 C21.8999,14.031 21.6319,14.3 21.2999,14.3 C20.9689,14.3 20.6999,14.031 20.6999,13.7 C20.6999,13.369 20.9689,13.1 21.2999,13.1" id="Fill-42" fill="#000000"></path>
            <path d="M18.6002,13.1 C18.9312,13.1 19.2002,13.369 19.2002,13.7 C19.2002,14.031 18.9312,14.3 18.6002,14.3 C18.2682,14.3 18.0002,14.031 18.0002,13.7 C18.0002,13.369 18.2682,13.1 18.6002,13.1" id="Fill-44" fill="#000000"></path>
            <path d="M16.0001,13.1 C16.3311,13.1 16.6001,13.369 16.6001,13.7 C16.6001,14.031 16.3311,14.3 16.0001,14.3 C15.6681,14.3 15.4001,14.031 15.4001,13.7 C15.4001,13.369 15.6681,13.1 16.0001,13.1" id="Fill-46" fill="#000000"></path>
            <path d="M29.1998,13.1 C29.5318,13.1 29.8008,13.369 29.8008,13.7 C29.8008,14.031 29.5318,14.3 29.1998,14.3 C28.8688,14.3 28.5998,14.031 28.5998,13.7 C28.5998,13.369 28.8688,13.1 29.1998,13.1" id="Fill-48" fill="#000000"></path>
            <path d="M31.9,13.1 C32.231,13.1 32.5,13.369 32.5,13.7 C32.5,14.031 32.231,14.3 31.9,14.3 C31.569,14.3 31.3,14.031 31.3,13.7 C31.3,13.369 31.569,13.1 31.9,13.1" id="Fill-50" fill="#000000"></path>
            <path d="M25.2999,25.6 C25.6319,25.6 25.8999,25.869 25.8999,26.2 C25.8999,26.531 25.6319,26.8 25.2999,26.8 C24.9689,26.8 24.6999,26.531 24.6999,26.2 C24.6999,25.869 24.9689,25.6 25.2999,25.6" id="Fill-52" fill="#000000"></path>
            <path d="M26.6002,23.3002 C26.9312,23.3002 27.2002,23.5692 27.2002,23.9002 C27.2002,24.2312 26.9312,24.5002 26.6002,24.5002 C26.2682,24.5002 26.0002,24.2312 26.0002,23.9002 C26.0002,23.5692 26.2682,23.3002 26.6002,23.3002" id="Fill-54" fill="#000000"></path>
            <path d="M23.9,23.3002 C24.232,23.3002 24.5,23.5692 24.5,23.9002 C24.5,24.2312 24.232,24.5002 23.9,24.5002 C23.568,24.5002 23.3,24.2312 23.3,23.9002 C23.3,23.5692 23.568,23.3002 23.9,23.3002" id="Fill-56" fill="#000000"></path>
            <path d="M21.2999,23.3002 C21.6319,23.3002 21.8999,23.5692 21.8999,23.9002 C21.8999,24.2312 21.6319,24.5002 21.2999,24.5002 C20.9689,24.5002 20.6999,24.2312 20.6999,23.9002 C20.6999,23.5692 20.9689,23.3002 21.2999,23.3002" id="Fill-58" fill="#000000"></path>
            <path d="M23.9,48.6 C24.3,48.6 24.5,48.3 24.5,47.9 C24.5,47.5 24.2,47.3 23.9,47.3 C23.6,47.3 23.3,47.6 23.3,48 C23.3,48.4 23.6,48.6 23.9,48.6" id="Fill-60" fill="#000000"></path>
            <path d="M23.9,45.4999 C24.3,45.4999 24.5,45.1999 24.5,44.7999 C24.5,44.3999 24.2,44.1999 23.9,44.1999 C23.6,44.1999 23.3,44.4999 23.3,44.8999 C23.3,45.2999 23.6,45.4999 23.9,45.4999" id="Fill-62" fill="#000000"></path>
            <path d="M23.9,51.6 C24.3,51.6 24.5,51.3 24.5,50.9 C24.5,50.5 24.2,50.3 23.9,50.3 C23.6,50.3 23.3,50.6 23.3,51 C23.3,51.4 23.6,51.6 23.9,51.6" id="Fill-64" fill="#000000"></path>
            <path d="M23.9,42.3998 C24.3,42.3998 24.5,42.0998 24.5,41.6998 C24.5,41.2998 24.2,41.0998 23.9,41.0998 C23.6,41.0998 23.3,41.3998 23.3,41.7998 C23.3,42.1998 23.6,42.3998 23.9,42.3998" id="Fill-66" fill="#000000"></path>
            <path d="M23.9,54.6996 C24.3,54.6996 24.5,54.3996 24.5,54.0006 C24.5,53.5996 24.2,53.3996 23.9,53.3996 C23.6,53.3996 23.3,53.6996 23.3,54.0996 C23.3,54.5006 23.6,54.6996 23.9,54.6996" id="Fill-68" fill="#000000"></path>
            <path d="M23.9,33.3002 C24.3,33.3002 24.5,33.0002 24.5,32.6002 C24.5,32.2002 24.2,32.0002 23.9,32.0002 C23.6,32.0002 23.3,32.3002 23.3,32.7002 C23.3,33.1002 23.6,33.3002 23.9,33.3002" id="Fill-70" fill="#000000"></path>
            <path d="M23.9,39.3998 C24.3,39.3998 24.5,39.0998 24.5,38.6998 C24.5,38.2998 24.2,38.0998 23.9,38.0998 C23.6,38.0998 23.3,38.3998 23.3,38.7998 C23.3,39.1998 23.6,39.3998 23.9,39.3998" id="Fill-72" fill="#000000"></path>
            <path d="M23.9,30.2001 C24.3,30.2001 24.5,29.9001 24.5,29.5001 C24.5,29.1001 24.2,28.9001 23.9,28.9001 C23.6,28.9001 23.3,29.2001 23.3,29.6001 C23.3,30.0001 23.6,30.2001 23.9,30.2001" id="Fill-74" fill="#000000"></path>
            <path d="M23.9,36.3002 C24.3,36.3002 24.5,36.0002 24.5,35.6002 C24.5,35.2002 24.2,35.0002 23.9,35.0002 C23.6,35.0002 23.3,35.3002 23.3,35.7002 C23.3,36.1002 23.6,36.3002 23.9,36.3002" id="Fill-76" fill="#000000"></path>
        </g>
    </g>
</svg>