<svg xmlns="http://www.w3.org/2000/svg" viewBox="0 0 1920 488"><defs><style>.a{fill:#fff;}</style></defs><title>top3</title><rect class="a" width="1920" height="488"/><path d="M390.49,295.06a3.34,3.34,0,0,1-3.49-3.31,6.78,6.78,0,0,1,.52-2.44c4.71-13.42,11.16-29.28,17.78-43.74,5.57-12.37,11.15-24,16-33.11-6.27-.53-12-1.92-20.39-4.36-2.79-.7-4-2.09-4-4,0-1.74,1.4-3.31,3.84-3.31a8.93,8.93,0,0,1,2.26.35c9.41,2.61,15.34,4.18,22.66,4.18,7,0,20.74-2.26,48.27-7.84a12.07,12.07,0,0,1,2.44-.35,3.44,3.44,0,0,1,3.66,3.49c0,2.09-1.57,3.31-4.36,4-24.22,4.7-36.77,7.31-46.18,7.84-5,9.41-11.33,22.13-17.6,36.07-6.45,14.29-12.72,29.8-17.25,42.87C393.62,294,392.4,295.06,390.49,295.06Z"/><path d="M518.92,287.92c-7.14,4-13.77,7.14-17.08,7.14-5.75,0-9.93-4-9.93-9.58,0-2.62,1.74-7,3.66-11.33,1.39-3.14,3-6.45,3-8.89,0-1.74-1.39-2.26-2.79-2.26-3.31,0-9.93,3.48-19.34,9.93l-30.67,21.43c-3.31,2.44-6.62-.34-5.06-4.18,5.76-14.11,11.51-27.18,17.61-39.21,6.27-12.2,12.72-23.18,20-32.76,7.14-9.41,13.94-16,19.86-20.22,6.63-4.53,12.2-6.44,16-6.44,5.75,0,9.76,3.83,9.76,9.41,0,6.62-6.1,15.85-18.65,28-11.5,11.33-28.41,25.27-49,42.35-1.57,3.49-3.14,7-4.71,10.63l20.92-14.64c11.32-8,17.95-11.33,23.17-11.33,5.75,0,9.76,3.84,9.76,9.24,0,3-1.74,7.49-3.66,11.85-1.39,3.14-3,6.27-3,8.37,0,1.74,1.05,2.61,3,2.61,2.62,0,8-3,13.42-6.27,6.28-3.66,12.9-8,16.91-10.81a3.53,3.53,0,0,1,3.83,5.93C531.82,279.73,525.2,284.08,518.92,287.92Zm-55.59-31.2c15.34-12.89,27.88-23.7,37.12-32.59C510.73,214,517,206.53,517,201c0-1.75-.87-2.44-2.78-2.44-3,0-7.15,1.74-12,5.22a84.77,84.77,0,0,0-18.3,18.65A187.24,187.24,0,0,0,463.33,256.72Z"/><path d="M566.67,290.18c-6.62,3.84-12.9,6.1-18.47,6.1-10.28,0-17.6-7.84-17.6-18.65,0-8.19,4-16.9,10.1-23.35,6.1-6.79,14.29-11.15,22.31-11.15,6.45,0,11,3.83,11,9.41,0,5.92-5.75,11.68-22.31,21.78l-13.24,8.19a9.84,9.84,0,0,0,9.76,6.8c4.7,0,9.58-2.09,15.16-5.23,5.92-3.48,12.55-8,20-13.07a3.53,3.53,0,0,1,3.83,5.93A222.34,222.34,0,0,1,566.67,290.18Zm-28.93-15.33,10.46-6.45c12.55-7.84,18.82-13.07,18.82-15.86,0-1.57-1.57-2.44-4-2.44-6.27,0-12.55,3.66-17.25,8.89A30.69,30.69,0,0,0,537.74,274.85Z"/><path d="M652.93,295.93c-6.45,0-11.15-1.91-14.29-4.88a16.66,16.66,0,0,1-5-12.37c0-6.8,3.31-14.46,12.37-22A74.37,74.37,0,0,1,661.64,247a15.1,15.1,0,0,1-7.31-13.24c0-9.24,6.79-18.3,20.91-25.1,12.55-5.92,31-10.1,54.54-11.15a3.49,3.49,0,1,1,.35,7c-22.3.87-39.9,4.88-51.93,10.63-10.46,4.88-16.9,11.33-16.9,18.65,0,6.79,4.88,9.06,9.93,9.06a130,130,0,0,1,15.86-5.23c6.62-1.91,11-2.61,13.77-2.61,6.44,0,7.14,3.83,5,6.1-2.44,2.79-8.71,5.23-16,6.62a114.79,114.79,0,0,1-17.26,2.09c-9.76,3.83-17.07,8-22.13,12.37-7,5.58-9.93,11.33-9.93,16.56a9.43,9.43,0,0,0,2.79,7.14c2.09,2.1,5.4,3.14,9.58,3.14,5.4,0,10.63-1.57,18.3-5.58C679.77,279,690.92,271.71,708,260a3.53,3.53,0,0,1,3.83,5.93c-17.25,11.67-28.75,19.17-37.29,23.52C665.3,294.36,659.21,295.93,652.93,295.93Z"/><path d="M780,287.92c-7,4.18-12.89,7.14-16.73,7.14-6.45,0-10.63-5.4-9.76-14.12a26.18,26.18,0,0,1,.87-5.05c-1.22,1.22-2.44,2.62-3.66,3.84-10.28,10.8-17.07,15.33-23,15.33-7.32,0-11.68-4.36-11.68-12.55,0-8.36,4.71-17.77,11.33-25.27,6.8-7.49,15.86-12.54,24.23-12.54,6.09,0,11,2.09,14.11,5.57,1.05-1.56,2.09-3,3.31-4.53,3-3.66,8.19-.52,5.93,3.84-2.79,4.88-6.28,10.45-9.24,16.2-2.61,5.23-4.88,10.63-5.23,15.51-.52,4.53.53,6.8,3,6.8,2.78,0,7.66-3,13.07-6.27,6.1-3.66,12.54-8,16.73-10.81a3.53,3.53,0,0,1,3.83,5.93C793,279.73,786.24,284.08,780,287.92Zm-52.28.17c4.71,0,11-5.75,17.95-13.07a193.39,193.39,0,0,0,15.68-18.82c-1.39-2.79-5.05-4.53-9.75-4.53-6.8,0-13.77,4.53-19,10.28-5.58,6.1-9.24,13.59-9.24,20.39C723.33,286.35,724.55,288.09,727.69,288.09Z"/><path d="M867.11,272.06a3.62,3.62,0,0,1-1.05,4.88c-4.18,3-10.63,7.49-17.25,11.32-7.15,4.36-13.94,7.5-19,7.5-6.62,0-11-4-11-11.33,0-5.58,3-13.24,7.67-20.56,1.74-2.62,3.66-5.41,5.58-8.19A45.45,45.45,0,0,1,819,257.77c-4.53,5.4-11.16,11.33-22,19.17a3.57,3.57,0,0,1-4.88-.7,3.64,3.64,0,0,1,1.05-5.23c3.66-2.44,6.44-4.7,9.23-6.79a86,86,0,0,0,9.76-8.37c-5.58-3-9.24-8.89-9.24-16.21,0-9.76,5.93-17.25,13.42-17.25,6.8,0,11,5.4,11,13.94a30.32,30.32,0,0,1-3.48,14.29,60.25,60.25,0,0,0,19.51-7.49c4-2.44,7.67,2.09,4.36,5.4a121.28,121.28,0,0,0-15.33,19c-3.84,6.1-6.63,11.85-6.63,16.55,0,3.31,1.57,4.71,4.36,4.71,4.18,0,9.41-3,15.16-6.45,6.28-3.83,12.9-8.37,16.91-11.33A3.62,3.62,0,0,1,867.11,272.06Zm-50.37-22c2.79-4,3.84-9.41,3.84-13.42,0-4.53-1.57-7.32-4.19-7.32-3.83,0-6.44,5.06-6.44,10.28C810,244.17,812,248.53,816.74,250.1Z"/><path d="M894.81,288.26c-7.14,4.19-14.46,7.5-19.17,7.5-8.71,0-15.16-7.84-15.16-18.65,0-12,7.5-30.84,17.6-47.92H866.76a3.49,3.49,0,1,1,0-7h15.68c11.68-17.6,25.79-30.67,35.73-30.67,6.44,0,9.41,4.35,9.41,9.41,0,4.53-3.66,11.85-10.81,21.26h17.78a3.49,3.49,0,0,1,0,7H911.2l-.53.69c-10.28,12.38-24.92,27.71-43.22,46.19v1c0,6.8,3.49,11.68,8.19,11.68,3.84,0,9.76-3.14,15.69-6.63,6.45-3.83,12.89-8.53,16.73-11.15a3.53,3.53,0,1,1,3.83,5.93C907.88,279.9,901.44,284.26,894.81,288.26Zm-25.09-24.39c13.07-13.42,24-24.92,32.41-34.68h-16C879.13,240.51,872.86,253.06,869.72,263.87Zm21.09-41.65h17.25c7.84-9.59,12.55-16.73,12.55-21.26,0-1.75-.7-2.44-2.44-2.44C910.32,198.52,900.22,209.15,890.81,222.22Z"/><path d="M977.94,287.92c-7.15,4-13.77,7.14-17.08,7.14-5.75,0-9.93-4-9.93-9.58,0-2.62,1.74-7,3.66-11.33,1.39-3.14,3-6.45,3-8.89,0-1.74-1.39-2.26-2.79-2.26-3.31,0-9.93,3.48-19.34,9.93l-30.67,21.43c-3.32,2.44-6.63-.34-5.06-4.18,5.75-14.11,11.5-27.18,17.6-39.21,6.28-12.2,12.72-23.18,20-32.76,7.15-9.41,13.95-16,19.87-20.22,6.62-4.53,12.2-6.44,16-6.44,5.75,0,9.76,3.83,9.76,9.41,0,6.62-6.1,15.85-18.64,28-11.51,11.33-28.41,25.27-49,42.35-1.57,3.49-3.14,7-4.71,10.63l20.91-14.64c11.33-8,17.95-11.33,23.18-11.33,5.75,0,9.76,3.84,9.76,9.24,0,3-1.74,7.49-3.66,11.85-1.39,3.14-3,6.27-3,8.37,0,1.74,1,2.61,3,2.61,2.61,0,8-3,13.42-6.27,6.27-3.66,12.9-8,16.9-10.81a3.53,3.53,0,0,1,3.84,5.93C990.83,279.73,984.21,284.08,977.94,287.92Zm-55.59-31.2c15.33-12.89,27.88-23.7,37.12-32.59C969.75,214,976,206.53,976,201c0-1.75-.87-2.44-2.79-2.44-3,0-7.14,1.74-12,5.22a84.77,84.77,0,0,0-18.3,18.65A186.13,186.13,0,0,0,922.35,256.72Z"/><path d="M1034.4,282.86a26.63,26.63,0,0,1-23.35,13.59c-12.37,0-19.17-8.53-19-19.69a4.65,4.65,0,0,1-1.39-1.22,3.24,3.24,0,0,1,.87-4.7c13.07-8.72,26.49-18.13,36.07-26.67a30.39,30.39,0,0,1,5.76-13.76c4-4.88,7.84-7,10.8-7,2.61,0,4,1.39,4,3.83,0,2.61-1.51,6.85-6.62,12.9a86.19,86.19,0,0,1-6.8,7.14c.35,5.93,3,11.15,3,22.13a34.38,34.38,0,0,1-.52,6.1,69.34,69.34,0,0,0,23.87-8.54,3.44,3.44,0,0,1,3.49,5.93C1055.84,277.81,1045.9,281.82,1034.4,282.86Zm-35.2-8.71c-1.4,8.89,3.14,15.33,12.2,15.33a19.85,19.85,0,0,0,14.46-6.44,48.8,48.8,0,0,1-15.16-3.14A59,59,0,0,1,999.2,274.15Zm29.45,1.92h1a19.8,19.8,0,0,0,1-6.63c0-7.14-1.39-12.2-2.26-16.9-6.8,5.58-15,11.33-23.18,17.08a54.78,54.78,0,0,0,7.84,3.66A41.82,41.82,0,0,0,1028.65,276.07Z"/><path d="M1145.76,276.24c-6.1,11.5-17.26,19.87-28.06,19.87-11.33,0-18.3-8-18.3-19.52,0-11.16,5.23-22.31,16-30.67a3.49,3.49,0,1,1,4.19,5.57c-8.54,6.45-13.25,15.86-13.25,25.1,0,8,4.53,12.55,11.33,12.55,8,0,16.21-6.28,21.26-14.82-9.24-3.66-15.34-11.32-15.34-20.21,0-8.72,6.1-14.29,13.42-14.29,8.54,0,13.77,6.62,13.77,17.42a37,37,0,0,1-2.09,12.38,19.35,19.35,0,0,0,3.83.35c8.37,0,17.08-4.19,23-10.11a3.45,3.45,0,0,1,4.88,4.88c-6.8,7.14-18.48,12-28.58,12A34.3,34.3,0,0,1,1145.76,276.24Zm-3.84-8.37a31.79,31.79,0,0,0,1.92-10.63c0-6.27-2.09-10.45-6.8-10.45-4.18,0-6.45,3.48-6.45,7.32C1130.59,261.08,1135.82,265.61,1141.92,267.87Z"/><path d="M1232.89,287.92c-6.45,4.18-12.2,7.14-16.56,7.14-6.44,0-10.1-3.83-10.1-10.28,0-5.58,3.13-11.68,6.44-17.6,2.62-4.53,5.58-8.89,5.58-12.38q0-3.13-3.14-3.13c-2.44,0-5,1.22-11.32,6.1-7.32,5.75-18.83,16.38-38.69,35.55-3.31,3.31-7.67-.18-5.4-4.18,3.66-6.45,8.53-15.86,13.24-24.23,4.53-8.36,8.54-15.86,10.28-18.82a3.44,3.44,0,0,1,5.93,3.49c-1.57,2.78-5.58,10.28-10.11,18.64-.7,1.4-1.57,3-2.44,4.36,10.63-9.93,17.78-16.21,23-20.22,8.54-6.79,12.2-7.66,15.51-7.66,6.1,0,10.11,4,10.11,9.93,0,4.36-3.14,10.11-6.45,16-2.61,4.71-5.57,9.41-5.57,13.6,0,2.61,1,3.83,3.31,3.83,3.13,0,7.67-3,12.54-6.1,5.76-3.66,11.86-8,15.86-11a3.53,3.53,0,0,1,3.84,5.93C1244.74,279.9,1238.64,284.08,1232.89,287.92Z"/><path d="M1297.54,295.06a3.76,3.76,0,0,1-2.26-4.7c5.92-15.69,13.77-29.8,22.83-39.91-6.1-4.36-9.41-10.46-9.41-17.6,0-11.85,7.14-20.74,21.61-27,12.89-5.58,31.71-8.72,55.59-8.54a3.66,3.66,0,0,1,0,7.32c-22.48,0-40.61,2.61-52.81,8-10.8,4.71-17.07,11.33-17.07,20.22,0,5.75,3.13,9.58,7.32,12.2,9.06-8.72,18.47-12.73,28.58-12.73,9.06,0,14.29,3.84,14.29,10.63,0,8.54-10.11,13.77-25.62,13.77a46.58,46.58,0,0,1-15.69-2.79c-9.23,9.24-17.25,24.23-22.65,38.87A3.77,3.77,0,0,1,1297.54,295.06Zm33.29-46.88a37,37,0,0,0,9.93,1.22c11.85,0,18.13-3.66,18.13-6.45,0-2.26-2.27-3.31-7-3.31C1344.42,239.64,1337.28,242.78,1330.83,248.18Z"/><path d="M1375.27,265.78c-2.44,5.23-4,10.46-4,15.34,0,4.7,1.57,7,4.7,7s8.54-3,14.29-6.27c6.45-3.66,12.9-8,17.08-10.81a3.53,3.53,0,0,1,3.84,5.93c-4.19,2.79-11,7.14-17.43,11-7.15,4-14.12,7.14-17.78,7.14-7.14,0-11.67-5.4-11.67-13.94a42.6,42.6,0,0,1,4.7-18.3,95.74,95.74,0,0,1,10.63-16.9,3.49,3.49,0,0,1,5.58,4.18A88,88,0,0,0,1375.27,265.78Zm10.8-37.46a6.19,6.19,0,1,1,12.38,0,6.19,6.19,0,0,1-12.38,0Z"/><path d="M1481.22,272.06a3.62,3.62,0,0,1-1,4.88c-4.19,3-10.64,7.49-17.26,11.32-7.14,4.36-13.94,7.5-19,7.5-6.63,0-11-4-11-11.33,0-5.58,3-13.24,7.67-20.56,1.74-2.62,3.66-5.41,5.57-8.19a45.41,45.41,0,0,1-13.07,2.09c-4.53,5.4-11.15,11.33-21.95,19.17a3.57,3.57,0,0,1-4.88-.7,3.64,3.64,0,0,1,1-5.23c3.66-2.44,6.45-4.7,9.24-6.79a86.87,86.87,0,0,0,9.76-8.37c-5.58-3-9.24-8.89-9.24-16.21,0-9.76,5.92-17.25,13.42-17.25,6.79,0,11,5.4,11,13.94a30.33,30.33,0,0,1-3.49,14.29,60.39,60.39,0,0,0,19.52-7.49c4-2.44,7.67,2.09,4.36,5.4a121.35,121.35,0,0,0-15.34,19c-3.83,6.1-6.62,11.85-6.62,16.55,0,3.31,1.57,4.71,4.36,4.71,4.18,0,9.41-3,15.16-6.45,6.27-3.83,12.89-8.37,16.9-11.33A3.62,3.62,0,0,1,1481.22,272.06Zm-50.36-22c2.79-4,3.83-9.41,3.83-13.42,0-4.53-1.57-7.32-4.18-7.32-3.83,0-6.45,5.06-6.45,10.28C1424.06,244.17,1426.15,248.53,1430.86,250.1Z"/><path d="M1510.85,290.18c-6.63,3.84-12.9,6.1-18.48,6.1-10.28,0-17.6-7.84-17.6-18.65,0-8.19,4-16.9,10.11-23.35,6.1-6.79,14.29-11.15,22.31-11.15,6.45,0,11,3.83,11,9.41,0,5.92-5.75,11.68-22.31,21.78l-13.24,8.19a9.83,9.83,0,0,0,9.75,6.8c4.71,0,9.59-2.09,15.17-5.23,5.92-3.48,12.54-8,20-13.07a3.53,3.53,0,1,1,3.83,5.93A222.34,222.34,0,0,1,1510.85,290.18Zm-28.93-15.33,10.45-6.45c12.55-7.84,18.83-13.07,18.83-15.86,0-1.57-1.57-2.44-4-2.44-6.28,0-12.55,3.66-17.26,8.89A30.68,30.68,0,0,0,1481.92,274.85Z"/></svg>